<svg id="Capa_1" data-name="Capa 1" xmlns="http://www.w3.org/2000/svg" viewBox="0 0 300 300"><defs><style>.cls-1{fill:#f0f0f0;}</style></defs><path class="cls-1" d="M249.42,136.63c-14.84.92-30.46-1.09-46,1-2.17.3-2.87-1-3.6-2.84-7.59-19-21.55-30.68-41.68-33.79-29.13-4.5-47.92,8.11-59.59,30.84-4.08,7.94-7.87,5-12.8,4.95-18.12-.09-36.25-.13-54.37,0-7.67.06-15.33-.46-23,.95C1.7,139,.05,136.94.88,130.06c2-16.56,7.46-32,14.55-47.06,8-17,19.21-31.36,32.85-44A140.76,140.76,0,0,1,96.91,9.17,157.7,157.7,0,0,1,148.68,0c41.63-.59,76.45,14.19,106.14,42.89,14.06,13.59,24.48,29.46,32.53,47,6.27,13.64,9.9,28.16,11.85,43.06.3,2.33.31,4.72-3.42,4.39C280.59,136,265.36,137.26,249.42,136.63Z"/><path class="cls-1" d="M49.61,175c14.07,0,28.14.05,42.2,0,2.76,0,4.28.67,5.83,3.32,6.84,11.75,15.18,22.26,28.11,27.82a53.72,53.72,0,0,0,27.87,4.22c8.63-1,16.64-3.21,24.21-7.82,9.4-5.73,16-13.76,20.84-23.26,1.68-3.27,3.35-4.33,6.91-4.31,28.52.14,57,.07,85.55.08,5.79,0,7.08,1.78,5.54,7.36-5.81,21.06-14.32,41-27.5,58.43-11.59,15.36-26.18,27.53-42.54,37.84s-34.42,16.12-53.07,19.58c-13.22,2.45-26.84,2.17-40.41.8-22.63-2.28-43.28-10.1-62.54-21.58C54.51,267.79,41.2,254.89,29.78,240c-12.52-16.37-20.57-34.77-26-54.47C.84,174.93.8,175,11.46,175Z"/><path class="cls-1" d="M117.67,155.92a30.9,30.9,0,0,1,31.26-30.72c17,0,31.28,14.89,31.22,32.61-.05,16-15.06,30.82-31.1,31.07C132.73,189.14,115.27,173.62,117.67,155.92Z"/></svg>